<svg id="Layer_1" data-name="Layer 1" xmlns="http://www.w3.org/2000/svg" xmlns:xlink="http://www.w3.org/1999/xlink" viewBox="0 0 276.01 99.54"><defs><style>.cls-1,.cls-4{fill:none;}.cls-2{clip-path:url(#clip-path);}.cls-3{fill:#fff;}.cls-4{stroke:#fff;stroke-miterlimit:10;stroke-width:1.81px;}</style><clipPath id="clip-path"><rect class="cls-1" x="-194.68" y="153.74" width="1200.79" height="800.61"/></clipPath></defs><title>Home &amp;amp; Away logo</title><g class="cls-2"><image width="5472" height="3648" transform="translate(-281.78 85.15) scale(0.24 0.24)" xlink:href="../src/restaurant-glass-wine-glasses bnw.jpg"/></g><path class="cls-3" d="M126.56,47a10.11,10.11,0,0,1-1.33-.09c-6-.79-8.57-6.4-10.87-11.35a41.75,41.75,0,0,0-2.26-4.43c-2.81-4.48-7.58-10-14.36-10.76-6.56-.76-13.28,2.21-18.41,4.88L72.08,29C63.54,33.43,54.71,38,46,42.52a1.35,1.35,0,0,1-1.24-2.41c8.7-4.49,17.53-9.08,26.06-13.52l7.25-3.77c5.47-2.84,12.69-6,20-5.16,6.21.71,11.87,4.87,16.35,12a43.53,43.53,0,0,1,2.42,4.73c2.1,4.53,4.28,9.21,8.77,9.81,3.44.46,4.84-1.37,7-4.64.61-.91,1.24-1.86,2-2.74,9.65-11.75,19-20.58,28.5-27C171,4.49,177.9,2,185.35,1.7,197.87,1.23,209,7,217.23,12.16a1.35,1.35,0,0,1-1.43,2.3C200.69,5.11,191.64,4.17,185.46,4.41c-6.93.26-13.36,2.63-20.88,7.68-9.31,6.25-18.44,14.9-27.92,26.45-.64.78-1.23,1.67-1.8,2.52C133,43.85,130.91,47,126.56,47Z"/><path class="cls-3" d="M217.49,36.17a1.35,1.35,0,0,1-1.35-1.32A34.2,34.2,0,0,1,222,14.77,27.88,27.88,0,0,1,239.2,3a1.35,1.35,0,1,1,.58,2.65A25.22,25.22,0,0,0,224.2,16.31a31.47,31.47,0,0,0-5.36,18.48,1.35,1.35,0,0,1-1.32,1.39Z"/><path class="cls-3" d="M248.42,60.47a26.12,26.12,0,1,1,26.12-26.12A26.15,26.15,0,0,1,248.42,60.47Zm0-51.6A25.48,25.48,0,1,0,273.9,34.35,25.51,25.51,0,0,0,248.42,8.87Z"/><polygon class="cls-3" points="236.73 11.34 237.8 11.62 237.29 18.23 231.18 23.15 226.32 21.01 228.31 18.18 230.07 16.21 232.06 14.39 234.32 12.73 236.73 11.34"/><polygon class="cls-3" points="250.56 8.63 254.73 13.26 260.5 11.55 258.03 10.4 255.53 9.54 253.49 9.04 251.65 8.74 250.56 8.63"/><polygon class="cls-3" points="252.95 20.26 244.15 22.8 244.15 31.94 252.45 35.41 258.03 28.64 252.95 20.26"/><polygon class="cls-3" points="230.77 35.41 227.56 41.76 234.16 50.4 237.8 47.35 237.04 39.28 230.77 35.41"/><polygon class="cls-3" points="248.42 51.92 254.68 45.04 261.9 48.03 259.36 53.9 251.97 55.88 248.42 51.92"/><polygon class="cls-3" points="269.13 23.81 272.96 29.91 272.62 39.28 268.36 39.28 266.3 31.27 269.13 23.81"/><path class="cls-3" d="M252.68,22.58l-.63-.12c.5-2.69,2.58-10.83,2.6-10.91l.62.16C255.25,11.78,253.18,19.91,252.68,22.58Z"/><path class="cls-3" d="M245.06,24.07c-.06,0-6.18-4.63-9.23-6.55l.34-.55c3.08,1.94,9.22,6.54,9.28,6.59Z"/><path class="cls-3" d="M230.77,36.66c-.85-2.79,0-13.71,0-14.17l.64,0c0,.11-.83,11.26,0,13.94Z"/><path class="cls-3" d="M236.48,40.3l-.29-.58c1.07-.53,6.41-6.24,8.37-8.4l.48.43C244.3,32.57,237.84,39.62,236.48,40.3Z"/><path class="cls-3" d="M249.35,52.29c-2.26-.56-12.16-5-12.58-5.21l.26-.59c.1,0,10.27,4.62,12.48,5.17Z"/><path class="cls-3" d="M228,42a15,15,0,0,1-4.61-.65l.24-.6a15.06,15.06,0,0,0,4.47.61V42Z"/><path class="cls-3" d="M235.07,56.8c-1.77-1.64-1-7.22-1-7.46l.64.09c-.21,1.52-.49,5.73.77,6.9Z"/><path class="cls-3" d="M248.87,60.46l-.13-.63c.91-.19,2.49-3,3.27-4.66l.59.27C252.38,55.92,250.4,60.14,248.87,60.46Z"/><path class="cls-3" d="M261.88,56.41a14.54,14.54,0,0,0-3-2.42l.35-.54a15,15,0,0,1,3.2,2.62Z"/><path class="cls-3" d="M261.32,48.58l-.48-.43c2.24-2.5,8.14-9.41,8.47-11.35l.64.11C269.52,39.43,261.66,48.21,261.32,48.58Z"/><path class="cls-3" d="M254.64,46.81c-.36-5.7-3.06-12.73-3.08-12.8l.6-.23c0,.07,2.76,7.2,3.13,13Z"/><path class="cls-3" d="M267.66,31.8c-2-1.59-11.1-2.83-11.19-2.84l.09-.64c.38.05,9.34,1.27,11.5,3Z"/><path class="cls-3" d="M273.61,41.27l-.62-.18c.22-.74-.9-2.14-1.31-2.57l.47-.44C272.34,38.27,274,40,273.61,41.27Z"/><path class="cls-3" d="M272.67,30.27l-.08-.64c1.28-.16,1.52,0,1.57.27l-.64.11a.27.27,0,0,0,.17.21A5.13,5.13,0,0,0,272.67,30.27Z"/><path class="cls-3" d="M268.85,24.55c-.15-2.34-.62-6.3-1.23-7l.47-.44c1,1,1.36,6.71,1.4,7.35Z"/><path class="cls-3" d="M222.62,34s1.92,19.69,19.59,23.67c0,0,15.83,4.22,26.31-7.17,0,0-9.57,13.23-26.74,8.75C241.77,59.28,223.35,55.06,222.62,34Z"/><path class="cls-3" d="M7.66,73.43H2.05V48.84h5.6v9.81h7.93V48.84h5.6V73.43h-5.6V63.57H7.66Z"/><path class="cls-3" d="M32.87,57.7C37.94,57.7,42,61,42,65.8s-3.84,8.08-9.12,8.08c-5.51,0-9.21-3.37-9.21-8.08S27.71,57.7,32.87,57.7Zm0,11.68a3.44,3.44,0,0,0,3.55-3.58,3.56,3.56,0,1,0-7.12,0A3.41,3.41,0,0,0,32.84,69.38Z"/><path class="cls-3" d="M44.4,58.14h5.28v1.61h.06a6.33,6.33,0,0,1,4.38-2.06,5.77,5.77,0,0,1,5.34,2.8,6.73,6.73,0,0,1,5.07-2.8c2.8,0,6,1.4,6,5.66V73.43H65.21V64.79a2.58,2.58,0,0,0-2.68-2.86,2.35,2.35,0,0,0-2.44,2.38v9.12H54.8V64.79a2.58,2.58,0,0,0-2.68-2.86,2.37,2.37,0,0,0-2.44,2.56v8.94H44.4Z"/><path class="cls-3" d="M78.14,66.52a3.13,3.13,0,0,0,3.31,3.16A4.2,4.2,0,0,0,85.17,68L89,69.89c-1.73,2.89-4.53,4-7.93,4a8.1,8.1,0,1,1,0-16.18c4.65,0,8.2,2.74,8.2,8.11a5.55,5.55,0,0,1,0,.72Zm6-2.92a2.71,2.71,0,0,0-2.89-2.47,2.63,2.63,0,0,0-2.92,2.47Z"/><path class="cls-3" d="M104.93,60.26c-1.43-1.79-2.47-3.52-2.47-5.45,0-3.81,2.74-6.41,7.84-6.41,4.92,0,7.3,3.34,7.3,6.41,0,3.7-4.86,6.05-4.86,6.05l3.28,3.4s1.07-.48,3.61-3.1l3.46,3.4a32.15,32.15,0,0,1-3.49,3.37l5.31,5.51h-7.06l-2.44-2.53c-2.15,1.52-4.11,3-7.9,3S98.94,72.42,98.94,67C98.94,63.9,102,61.78,104.93,60.26Zm2.92,3.07s-2.56.92-2.56,3.19c0,1.43,1.46,2.06,2.77,2.06a6.49,6.49,0,0,0,3.7-1.4Zm.3-8.52c0,1.43,1.79,3,1.79,3,1.25-.69,2.74-1.7,2.74-3a2.16,2.16,0,0,0-2.38-2.44C108.77,52.36,108.15,53.49,108.15,54.81Z"/><path class="cls-3" d="M155.24,73.43h-6l-1.82-4.92H138l-1.82,4.92h-6l9.93-24.59h5.19Zm-12.49-17h-.06l-2.74,7.15h5.54Z"/><path class="cls-3" d="M161.82,73.43l-8.2-15.29h6.08l3.73,8.26,3.67-8.26h3.64l3.67,8.26,3.73-8.26h6.08L176,73.43h-3.58l-3.52-7.9-3.52,7.9Z"/><path class="cls-3" d="M191.68,57.7a7,7,0,0,1,5,1.91V58.14H202V73.43h-5.22V71.71h-.06a6.77,6.77,0,0,1-5,2.18c-4.47,0-7.6-3.61-7.6-8.08S187.21,57.7,191.68,57.7Zm1.58,11.68a3.44,3.44,0,0,0,3.55-3.58,3.56,3.56,0,1,0-7.12,0A3.41,3.41,0,0,0,193.26,69.38Z"/><path class="cls-3" d="M223.1,58.14l-12,23H205l5.28-10.13L203,58.14h6.08L213.38,66,217,58.14Z"/><line class="cls-4" x1="80.66" y1="91.34" x2="105.53" y2="91.34"/><line class="cls-4" x1="171.27" y1="91.34" x2="196.14" y2="91.34"/><path class="cls-3" d="M122.92,91.58a5,5,0,1,1-5-4.79A4.86,4.86,0,0,1,122.92,91.58Zm-8.87,0a3.88,3.88,0,0,0,7.76,0,3.88,3.88,0,0,0-7.76,0Z"/><path class="cls-3" d="M133.41,93.9h-5.18l-1.06,2.44H126l4.27-9.52h1.13l4.26,9.52h-1.18Zm-.44-1L130.82,88l-2.14,4.9Z"/><path class="cls-3" d="M142.55,87.83c-1.22,0-2,.49-2,1.31,0,2.48,5.36,1.18,5.35,4.64,0,1.58-1.4,2.6-3.44,2.6a5.43,5.43,0,0,1-3.65-1.46l.49-.94a4.79,4.79,0,0,0,3.17,1.33c1.37,0,2.23-.56,2.23-1.48,0-2.54-5.35-1.2-5.35-4.61,0-1.5,1.32-2.45,3.29-2.45a5.63,5.63,0,0,1,3,.88l-.46,1A5,5,0,0,0,142.55,87.83Z"/><path class="cls-3" d="M151.92,86.81v9.52h-1.09V86.81Z"/><path class="cls-3" d="M160.29,87.83c-1.22,0-2,.49-2,1.31,0,2.48,5.36,1.18,5.35,4.64,0,1.58-1.4,2.6-3.44,2.6a5.43,5.43,0,0,1-3.65-1.46L157,94a4.79,4.79,0,0,0,3.17,1.33c1.37,0,2.23-.56,2.23-1.48,0-2.54-5.35-1.2-5.35-4.61,0-1.5,1.32-2.45,3.29-2.45a5.63,5.63,0,0,1,3,.88l-.46,1A5,5,0,0,0,160.29,87.83Z"/></svg>