<?xml version="1.0" encoding="utf-8"?>
<!-- Generator: Adobe Illustrator 21.0.0, SVG Export Plug-In . SVG Version: 6.00 Build 0)  -->
<svg version="1.1" id="Layer_1" xmlns="http://www.w3.org/2000/svg" xmlns:xlink="http://www.w3.org/1999/xlink" x="0px" y="0px"
	 viewBox="0 0 56 66" style="enable-background:new 0 0 56 66;" xml:space="preserve">
<style type="text/css">
	.st0{fill:#FFFFFF;}
	.st1{fill:#CD1141;}
	.st2{fill:#EC1B2E;}
	.st3{fill:#003876;}
	.st4{fill:#86754D;}
</style>
<g>
	<g>
		<g>
			<path class="st0" d="M28,0.8c8.6,0,16.9,1.8,24.7,5.2c1.6,6.6,2.6,13.5,2.7,18c0,0.1,0,0.2,0,0.2c0,4.4-0.6,8.8-1.9,12.9
				c-1.2,4.1-3.1,7.9-5.5,11.4c-2.4,3.5-5.3,6.6-8.7,9.4c-3.6,3-7.8,5.7-11.3,7.2c-3.5-1.5-7.7-4.2-11.3-7.2c-3.4-2.8-6.3-6-8.7-9.4
				c-2.4-3.5-4.2-7.4-5.5-11.4c-1.3-4.1-1.9-8.5-1.9-12.9c0-0.1,0-0.2,0-0.2c0-4.5,1-11.4,2.7-18C11.1,2.5,19.4,0.8,28,0.8"/>
			<path class="st1" d="M28,26.2c1.9,0,3.7,0.5,5.2,1.4h15.9c0-1.1,0-2.4,0-3.5c-0.1-4.9-1.5-13.1-2.9-18.8
				C40.6,3.3,34.5,2.3,28,2.3"/>
			<path class="st2" d="M28,2.3c-6.4,0-12.3,1-18.2,2.9c-1.5,5.9-2.7,13.8-2.9,17.5C6.6,28.2,7,32.2,8.1,36.5
				c0.6,2.5,1.4,4.8,2.5,7.1c1.1-0.6,2.3-1.3,3.5-2.2c1.2-0.9,2.3-2.1,3.2-3.2c0-0.4-0.1-0.8-0.1-1.2c0-0.6,0.1-1.3,0.2-1.9
				c-2.2,0.1-3.5,0.1-4.4,0.1c-1.2,0-2.3-0.8-2.8-2.1c-0.3,0-0.6,0-0.6,0c-0.4,0-1.1-0.4-1.1-1.7c0-1.3,0.7-1.7,1.1-1.7
				c0,0,0.3,0,0.6,0c0.5-1.3,1.6-2.1,2.8-2.1h9.8c1.6-0.9,3.3-1.4,5.2-1.4"/>
			<path class="st3" d="M18.3,56c-3-3-5.5-6.3-7.5-9.9c-2-3.6-3.4-7.6-4.3-11.6c-0.9-4.1-1.1-8.3-0.8-12.7C6,17.7,7.1,11.4,8.5,5.6
				c-1.3,0.5-2.6,1-3.8,1.5c-1.4,5.7-2.4,13-2.4,16.9c0,4.4,0.6,8.7,1.8,12.7c1.3,4.2,3,7.7,5.3,11c2.3,3.3,5.1,6.4,8.4,9.1
				c3.1,2.5,6.5,4.8,10.3,6.7c0,0,0,0,0,0C24.4,61.3,21.1,58.8,18.3,56"/>
			<path class="st3" d="M37.7,56c3-3,5.5-6.3,7.5-9.9c2-3.6,3.4-7.6,4.3-11.6c0.9-4.1,1.1-8.3,0.8-12.7c-0.3-4.1-1.4-10.4-2.7-16.2
				c1.3,0.5,2.6,1,3.8,1.5c1.4,5.7,2.4,13,2.4,16.9c0,4.4-0.6,8.7-1.8,12.7c-1.2,3.9-3,7.6-5.3,11c-2.3,3.3-5.1,6.4-8.4,9.1
				c-3.1,2.5-6.5,4.8-10.3,6.7l0,0C31.6,61.3,34.9,58.8,37.7,56"/>
			<path class="st4" d="M28,26.7c-5.6,0-10.2,4.6-10.2,10.2c0,5.6,4.6,10.2,10.2,10.2c5.6,0,10.2-4.6,10.2-10.2
				C38.2,31.3,33.6,26.7,28,26.7"/>
			<path class="st2" d="M28,47.6c-3.5,0-6.5-1.6-8.5-4.2c-2.4,1.4-4.9,2.4-7.3,3.2c1.9,3.3,4.3,6.5,7.1,9.3c2.6,2.6,5.5,4.9,8.7,7"
				/>
			<path class="st4" d="M13,34.6c-1.1,0-2-0.9-2.4-2.1c-0.5,0-0.9,0-0.9,0c-0.2,0-0.6-0.3-0.6-1.2c0-0.9,0.4-1.2,0.6-1.2
				c0,0,0.5,0,0.9,0c0.4-1.2,1.3-2.1,2.4-2.1h8.9c-2.2,1.5-3.7,3.8-4.4,6.4C15.6,34.5,14.1,34.6,13,34.6"/>
			<path class="st4" d="M46.7,47.7c-2.3,3.3-5.1,6.4-8.4,9.1c-3.1,2.5-6.5,4.8-10.3,6.6c-3.8-1.9-7.3-4.1-10.3-6.6
				c-3.3-2.7-6.1-5.8-8.4-9.1c-0.2-0.3-0.4-0.5-0.5-0.8c3.3-0.6,7-2,10.4-3.9c-0.9-1.2-1.5-2.6-1.7-4.1c-0.9,1-1.9,2.1-3,3
				c-1.9,1.4-4.1,2.8-6.6,3.5c-1.6-2.7-2.9-5.6-3.8-8.7c-1.2-4-1.9-8.3-1.8-12.7c0-4,1-11.2,2.4-16.9C12,3.9,19.9,2.3,28,2.3
				s16,1.6,23.4,4.8c1.4,5.7,2.4,12.9,2.4,16.9c0,1.4,0,2.7-0.2,4.1H34.1c2.4,1.7,4.1,4.3,4.5,7.4l3.7-0.9c0.8-0.2,1.2-0.7,1.3-1.3
				l9.4-0.6c-0.3,1.4-0.6,2.7-1,4.1C50.8,40.6,49,44.3,46.7,47.7 M52.9,5.8C45.3,2.4,37,0.5,28,0.5S10.7,2.4,3.1,5.8
				C1.3,12.9,0.4,19.7,0.4,24c0,4.6,0.6,9,1.9,13.2c1.2,4.1,3.1,7.9,5.5,11.5c2.4,3.5,5.3,6.7,8.7,9.5c3.2,2.7,7.5,5.6,11.5,7.3
				c3.9-1.7,8.3-4.6,11.5-7.3c3.4-2.8,6.3-6,8.7-9.5c2.4-3.5,4.3-7.4,5.5-11.5C55,33,55.6,28.6,55.6,24
				C55.6,19.7,54.7,12.9,52.9,5.8z"/>
			<path class="st0" d="M28.7,39.7v5.5c2.6-0.2,4.8-1.6,6.2-3.6l-4.8-2.7C29.7,39.3,29.2,39.6,28.7,39.7"/>
			<path class="st0" d="M27.3,28.6c-2.6,0.2-4.8,1.6-6.2,3.6l4.7,2.7c0.4-0.4,0.9-0.7,1.4-0.8"/>
			<path class="st0" d="M28,35.4c-0.8,0-1.5,0.7-1.5,1.5c0,0.8,0.7,1.5,1.5,1.5c0.8,0,1.5-0.7,1.5-1.5C29.5,36.1,28.8,35.4,28,35.4"
				/>
			<path class="st0" d="M28.7,28.6v5.5c0.6,0.1,1.1,0.4,1.4,0.8l4.7-2.7C33.5,30.2,31.2,28.8,28.7,28.6"/>
			<path class="st0" d="M27.3,39.7c-0.5-0.1-0.9-0.3-1.2-0.6C26,39.1,26,39,25.9,38.9l-4.8,2.7c0.1,0.2,0.2,0.3,0.3,0.5
				c1.4,1.7,3.5,2.9,5.8,3.1"/>
			<path class="st0" d="M30.8,37.7l4.8,2.7c0.9-1.9,1.2-4.7,0-7.1l-4.7,2.7C30.9,36.6,30.9,37.2,30.8,37.7"/>
			<path class="st4" d="M21.9,32l3.9,2.2c0.3-0.2,0.6-0.4,1-0.6v-4.5C24.9,29.5,23.1,30.5,21.9,32"/>
			<path class="st4" d="M29.2,29.2l0,4.5c0.4,0.1,0.7,0.3,1,0.6l3.9-2.2C32.9,30.5,31.1,29.5,29.2,29.2"/>
			<path class="st4" d="M35.8,36.1c-0.1-0.7-0.2-1.4-0.5-2l-3.9,2.2c0,0.2,0.1,0.4,0.1,0.6c0,0.1,0,0.2,0,0.2
				c1.1-0.3,2.3-0.6,3.4-0.8C35.1,36.2,35.4,36.2,35.8,36.1"/>
			<path class="st1" d="M28,63c3.2-2.1,6.2-4.5,8.7-7c3-3,5.5-6.4,7.4-9.9c2-3.6,3.4-7.6,4.2-11.6c0.1-0.3,0.1-0.6,0.2-0.9L44,33.8
				c-0.2,0.6-0.8,1.1-1.5,1.3h0c0,0-1.7,0.4-3.8,0.9c0,0.3,0,0.6,0,0.9c0,5.9-4.8,10.7-10.7,10.7"/>
			<path class="st4" d="M28.9,36.9c0-0.5-0.4-1-1-1c-0.5,0-1,0.4-1,1c0,0.5,0.4,1,1,1C28.5,37.9,28.9,37.4,28.9,36.9"/>
			<path class="st1" d="M29.2,44.6c1.9-0.3,3.7-1.3,4.9-2.8l-3.9-2.2c-0.3,0.2-0.6,0.4-1,0.6C29.2,40.1,29.2,44.6,29.2,44.6"/>
			<path class="st2" d="M21.9,41.8l3.9-2.2c0.3,0.2,0.6,0.4,1,0.6l0,4.5C24.9,44.3,23.1,43.3,21.9,41.8"/>
			<path class="st1" d="M35.8,36.9c0-0.1,0-0.2,0-0.3c-0.3,0.1-0.6,0.1-0.8,0.2c-1.2,0.3-2.3,0.5-3.4,0.8l3.7,2.1
				C35.6,38.8,35.8,37.9,35.8,36.9"/>
			<path class="st0" d="M20.5,33.3c-1.1,2.3-1,5,0,7.1l4.7-2.8c-0.2-0.5-0.2-1.1,0-1.7"/>
			<path class="st4" d="M20.7,39.7l3.9-2.2c-0.1-0.4-0.1-0.8,0-1.1l-3.9-2.2C20,35.9,20,37.9,20.7,39.7"/>
			<path class="st4" d="M41.3,18.8c-0.5,0-0.6-0.3-0.6-0.6c0-0.3,0.1-0.7,0.9-0.9c0,0.3,0,0.6,0,0.6l0,0.3c0,0.2,0,0.3,0,0.5
				C41.5,18.8,41.4,18.8,41.3,18.8 M31.2,18c-0.6,0.5-1,0.8-1.6,0.8c-0.5,0-0.9-0.4-1.1-0.8c0.6-0.2,2.8-1,3.4-1.3
				c0,0.5,0,1.1,0,1.1v0c0,0.4,0,0.7,0,1.1c0,0,0,0,0,0L31.2,18z M28.1,16.2C28.1,16.2,28.1,16.1,28.1,16.2c0-0.9,0.3-1.3,0.7-1.3
				c0.1,0,0.3,0,0.5,0.4c0,0.2,0.1,0.3,0.1,0.4c0,0.2-0.1,0.3-0.3,0.3l0,0c0,0-0.5,0.2-0.9,0.3C28.1,16.3,28.1,16.2,28.1,16.2z
				 M11.6,16.8c0.2-0.4,0.3-0.8,0.5-1.5c0.2,0.7,0.2,1.1,0.3,1.5C12.2,16.8,12,16.8,11.6,16.8z M31.9,19.5c0,0.2-0.1,0.9-0.1,1.1
				h3.1c-0.2-0.8-0.3-2-0.3-2.8c0,0-0.1-1.8-0.1-1.8c0-0.2,0-0.3,0.1-0.4c0.1-0.1,0.2-0.1,0.3-0.1c0.1,0,0.4,0,0.4,0.5l0.1,1.9
				c0,0.9,0,2-0.1,2.8h3c-0.1-0.3-0.1-0.9-0.2-1.1c0.4,0.8,1.2,1.2,2.3,1.2c0.6,0,1.1-0.2,1.5-0.5c0,0,0.2,0.3,0.2,0.3h5.6
				c-0.2-0.8-0.4-2-0.5-2.9l-0.8-6.2L43.7,11c0.2,0.8,0.4,2,0.5,2.8l0.4,4c0.1,0.7,0.2,1.5,0.1,2.3l0,0.1l-0.1-0.3
				c-0.2-0.5-0.3-1.2-0.4-2.1c0,0-0.1-1.3-0.1-1.3c-0.1-2-1.3-2.9-3.7-2.9c-0.4,0-1.4,0.1-2.1,0.3l0.2,2.3l0.6-0.4
				c0.5-0.3,1-0.5,1.4-0.5c0.4,0,0.6,0.1,0.7,0.4c-0.5,0.1-1,0.2-1.5,0.5c-0.9,0.4-1.4,0.9-1.6,1.6c0,0,0,0,0-0.1l-0.1-2.1
				c0-1.4-0.9-2.2-2.2-2.2c-0.6,0-1.1,0.2-1.6,0.5c0-0.1-0.1-0.2-0.1-0.2L34,13.5l-2.5-0.1c0.1,0.4,0.3,1.7,0.3,2.2
				c-0.1-0.7-0.5-1.4-1.1-1.9c-0.5-0.4-1.1-0.5-1.8-0.5c-0.9,0-1.8,0.4-2.5,1c-0.6,0.6-1,1.5-1,2.5c-0.2-0.3-0.5-0.5-0.9-0.6
				l-1.1-0.5l-0.1,0C23,15.3,23,15.3,23,15.2c0-0.1,0.3-0.2,0.6-0.2c0.5,0,1.1,0.2,1.7,0.6l0-2c-0.4-0.2-1-0.3-1.8-0.3
				c-0.4,0-1.2,0.1-1.9,0.5l0,0c-0.2,0.1-0.4,0.2-0.5,0.4l0-0.6c-0.7-0.1-1.4-0.1-2.2,0.7c0-0.1-0.1-0.3-0.1-0.5l-2.7,0.2
				c0.2,0.7,0.2,1.8,0.2,2.8l0,1c0,0,0,0.1,0,0.1c0,0.5-0.1,1.1-0.1,1.6c-0.2-0.7-0.5-1.6-0.7-2.4L14.2,11l-3.8,0.5
				c0,0.1,0.1,0.3,0.1,0.5c0,0.2,0,0.8-0.3,1.8c-0.6,1.8-1.5,4.4-2.3,6.2c-0.1,0.3-0.3,0.7-0.3,0.7h2.9c0-0.5,0.2-1.2,0.4-1.8
				c0.4,0,1.5,0,2-0.1c0.1,0.4,0.2,1,0.2,1.4l0,0.4H19c-0.1-0.9-0.1-2.2,0-2.9c0-0.8,0.2-1.4,0.6-1.7c0.3-0.3,0.6-0.3,0.8-0.4
				c0,1.1,0.7,1.6,1.3,1.9l1.2,0.6c0.4,0.2,0.4,0.3,0.4,0.4c0,0.2-0.4,0.3-0.7,0.3c-0.6,0-1.4-0.4-2.4-1.4l0,2.6
				c0.7,0.4,1.6,0.6,2.5,0.6c1.3,0,2.8-0.6,3.2-1.8c0.7,1.3,2,1.8,3.3,1.8C30.2,20.6,31.1,20.3,31.9,19.5z"/>
			<path class="st0" d="M24.9,13.9c-0.3-0.1-0.7-0.2-1.3-0.2c-0.5,0-1.2,0.1-1.7,0.4c-0.6,0.3-1,0.9-1.1,1.5
				c-0.1,0.9,0.4,1.3,1.1,1.6c0.5,0.2,0.9,0.4,1.2,0.6c0.4,0.2,0.7,0.4,0.7,0.9c0,0.4-0.4,0.7-1.1,0.7c-0.6,0-1.4-0.3-1.9-0.8l0,1.3
				c0.5,0.2,1.3,0.4,2,0.4c1.2,0,2.8-0.6,2.8-2c0-1-0.7-1.5-1.2-1.7c-0.5-0.2-0.9-0.4-1.1-0.5c-0.2-0.1-0.6-0.3-0.6-0.7
				c0-0.4,0.5-0.7,1.1-0.7c0.5,0,0.9,0.1,1.3,0.3"/>
			<path class="st0" d="M11,17.3l1.3-3.8l0.8,3.7 M13.8,11.5L11,11.9c0.1,0.4,0,1.1-0.3,2c-0.6,1.7-1.6,4.6-2.3,6.2h1.8
				c0.1-0.5,0.2-1.1,0.5-1.8l2.7-0.1c0.1,0.5,0.3,1.4,0.3,1.8H16C15.7,19.4,15.3,18,15,17L13.8,11.5z"/>
			<path class="st0" d="M20.7,13.9l-0.1,1.3c-0.4-0.1-1,0-1.4,0.5c-0.4,0.4-0.6,1-0.7,2c0,0.8-0.1,1.7,0,2.5h-2
				c0.1-0.8,0.2-1.7,0.2-2.5l0.1-1c0-0.8,0-1.6-0.1-2.4l1.8-0.1c0.1,0.3,0.1,0.7,0.1,1.1C19.4,14.1,20.1,13.8,20.7,13.9"/>
			<path class="st0" d="M46.1,11.9l-1.8-0.3c0.2,0.8,0.3,1.4,0.3,2.2l0.4,4c0.1,0.8,0.2,1.6,0.1,2.3h2c-0.2-0.8-0.3-1.5-0.4-2.3"/>
			<path class="st0" d="M37.9,20.1c-0.1-0.8-0.2-1.5-0.2-2.3l-0.1-2.1c0-1.1-0.7-1.8-1.8-1.8c-0.6,0-1.3,0.2-1.9,0.9
				c0-0.2-0.1-0.7-0.2-0.9l-1.6-0.1c0.1,0.8,0.2,1.6,0.2,2.4l0,1.5c0,0.8,0,1.6,0,2.3h2c-0.1-0.8-0.2-1.5-0.2-2.3l0-1.8
				c0-0.6,0.5-1,0.9-1c0.6,0,0.8,0.4,0.9,0.9l0.1,1.9c0,0.8,0,1.6,0,2.3"/>
			<path class="st0" d="M41.2,19.3c-0.6,0-1.1-0.3-1.1-1c0-0.7,0.4-1.2,1.8-1.5l0.1,1.1c0,0.4,0,0.6,0.1,1
				C41.9,19.1,41.6,19.3,41.2,19.3 M44.2,20.1c-0.2-0.6-0.4-1.4-0.4-2.2l-0.1-1.3c-0.1-1.5-0.7-2.5-3.2-2.5c-0.4,0-1.1,0.1-1.6,0.2
				l0.1,1.2c0.5-0.3,1-0.5,1.7-0.5c0.7,0,1.2,0.3,1.3,1.3c-0.6,0.1-1.2,0.2-1.9,0.5c-0.8,0.3-1.5,0.9-1.5,2c0.1,1.2,0.9,1.7,2,1.7
				c0.8,0,1.4-0.4,1.7-0.7c0.1,0.2,0.1,0.4,0.2,0.6H44.2z"/>
			<path class="st0" d="M29.2,16.4L27.7,17c0-0.3-0.1-0.5-0.1-0.8c0-1.5,0.8-1.7,1.1-1.8c0.4,0,0.8,0.2,0.9,0.7
				C29.8,15.7,29.8,16.2,29.2,16.4 M30.4,14c-0.5-0.3-1-0.5-1.6-0.5c-1.3,0-3.1,0.9-3,3.4c0,2.5,1.9,3.2,3.2,3.2
				c1.2,0,1.9-0.4,2.4-1l-0.4-0.5c-0.3,0.2-0.8,0.6-1.6,0.6c-0.8,0-1.4-0.6-1.7-1.5l3.7-1.4C31.4,15.2,31,14.4,30.4,14z"/>
		</g>
	</g>
</g>
</svg>
