<?xml version="1.0" encoding="utf-8"?>
<!-- Generator: Adobe Illustrator 21.0.0, SVG Export Plug-In . SVG Version: 6.00 Build 0)  -->
<svg version="1.1" id="Layer_1" xmlns="http://www.w3.org/2000/svg" xmlns:xlink="http://www.w3.org/1999/xlink" x="0px" y="0px"
	 viewBox="0 0 18 19" style="enable-background:new 0 0 18 19;" xml:space="preserve">
<style type="text/css">
	.st0{fill:#FFFFFF;}
</style>
<g>
	<path class="st0" d="M13.9,2.1h-0.7V0.9c0-0.3-0.2-0.5-0.5-0.5c-0.3,0-0.5,0.2-0.5,0.5v1.2H5.8V0.9c0-0.3-0.2-0.5-0.5-0.5
		C5,0.4,4.8,0.6,4.8,0.9v1.2H4.1c-2,0-3.6,1.6-3.6,3.6V15c0,2,1.6,3.6,3.6,3.6h9.8c2,0,3.6-1.6,3.6-3.6V5.7
		C17.5,3.7,15.9,2.1,13.9,2.1z M13.9,17.6H4.1c-1.4,0-2.6-1.1-2.6-2.6V8h14.9V15C16.4,16.4,15.3,17.6,13.9,17.6z M16.4,6.9H1.5V5.7
		c0-1.4,1.1-2.6,2.6-2.6h0.7v1.2c0,0.3,0.2,0.5,0.5,0.5c0.3,0,0.5-0.2,0.5-0.5V3.1h6.4v1.2c0,0.3,0.2,0.5,0.5,0.5
		c0.3,0,0.5-0.2,0.5-0.5V3.1h0.7c1.4,0,2.6,1.1,2.6,2.6V6.9z"/>
	<path class="st0" d="M13.3,13.6H4.7c-0.3,0-0.5,0.2-0.5,0.5c0,0.3,0.2,0.5,0.5,0.5h8.6c0.3,0,0.5-0.2,0.5-0.5
		C13.8,13.8,13.6,13.6,13.3,13.6z"/>
	<path class="st0" d="M6.1,11.7h5.7c0.3,0,0.5-0.2,0.5-0.5s-0.2-0.5-0.5-0.5H6.1c-0.3,0-0.5,0.2-0.5,0.5S5.8,11.7,6.1,11.7z"/>
</g>
</svg>
