<?xml version="1.0" encoding="utf-8"?>
<!-- Generator: Adobe Illustrator 21.0.0, SVG Export Plug-In . SVG Version: 6.00 Build 0)  -->
<svg version="1.1" id="Layer_1" xmlns="http://www.w3.org/2000/svg" xmlns:xlink="http://www.w3.org/1999/xlink" x="0px" y="0px"
	 viewBox="0 0 27 55" style="enable-background:new 0 0 27 55;" xml:space="preserve">
<style type="text/css">
	.st0{fill:#CDB63A;}
</style>
<g>
	<g>
		<g>
			<g>
				<g>
					<g>
						<g>
							<path class="st0" d="M13.6,54.5c-3.6,0-6.4-0.6-7.8-0.9c-0.8-0.2-1.3-1-1.2-1.8c0.2-0.8,0.4-2.2,0.6-4l0-0.2l0.2,0.1
								c1.7,0.4,7.9,1.6,16.4,0l0.2,0l0,0.2c0.2,1.8,0.4,3.2,0.6,4c0.2,0.8-0.3,1.6-1.2,1.8C18.6,54.3,15.9,54.5,13.6,54.5z M5.5,48
								c-0.2,1.7-0.4,3-0.6,3.8c-0.1,0.6,0.3,1.2,0.9,1.4c2.3,0.6,8.4,1.7,15.5,0c0.6-0.2,1-0.8,0.9-1.4C22,51,21.8,49.7,21.6,48
								C13.5,49.5,7.5,48.5,5.5,48z"/>
						</g>
						<g>
							<path class="st0" d="M13.5,53.5c-2.9,0-5.3-0.4-6.7-0.7C6,52.7,5.5,52,5.7,51.2c0.1-0.4,0.1-0.8,0.2-1.4
								c0-0.3,0.2-0.5,0.4-0.7c0.2-0.2,0.5-0.2,0.8-0.2c3.9,0.6,8.5,0.6,12.9-0.1c0.3,0,0.6,0,0.8,0.2c0.2,0.2,0.4,0.4,0.4,0.7
								c0.1,0.8,0.2,1.5,0.4,2.2c0.1,0.3-0.1,0.6-0.4,0.7C18.7,53.2,16.1,53.5,13.5,53.5z M6.9,49.3c-0.1,0-0.3,0-0.4,0.1
								c-0.1,0.1-0.2,0.3-0.3,0.4c-0.1,0.5-0.1,1-0.2,1.4c-0.1,0.6,0.3,1.1,0.8,1.2c1.5,0.3,3.8,0.7,6.7,0.7c2.6,0,5.1-0.3,7.5-0.9
								c0.1,0,0.2-0.1,0.1-0.2c-0.1-0.7-0.3-1.4-0.4-2.2c0-0.2-0.1-0.3-0.3-0.4c-0.1-0.1-0.3-0.1-0.5-0.1c-4.5,0.7-9.1,0.7-13,0.1
								C7,49.3,7,49.3,6.9,49.3z"/>
						</g>
					</g>
					<g>
						<path class="st0" d="M13.1,48.8c-4,0-6.8-0.6-7.9-0.8l-0.2,0l0-0.2c0.3-3.5,0.4-8.9-1.2-15.2c-1.5-6-2-13-2.2-17.7l0-0.2
							l0.2,0c2.2,0.1,11,0,21.2,0l2.2,0l0,0.2c-0.2,4.7-0.7,11.7-2.2,17.7c-1.5,6.3-1.5,11.7-1.2,15.2l0,0.2l-0.2,0
							C18.5,48.6,15.6,48.8,13.1,48.8z M5.5,47.6c1.9,0.4,7.9,1.5,16,0c-0.3-3.5-0.3-8.9,1.2-15.1c1.5-5.9,2-12.7,2.1-17.4l-1.8,0
							c-9.9,0-18.5,0.1-21,0c0.2,4.7,0.7,11.5,2.1,17.4C5.9,38.7,5.8,44.1,5.5,47.6z"/>
					</g>
					<g>
						<path class="st0" d="M13.4,15.1C6.6,15.1,2.2,15,2,15l-0.2,0l0-0.2c-0.1-3.5-0.1-6.4,0-7.8c0-0.8,0.7-1.5,1.5-1.5
							c10.2-0.7,17.9-0.3,20.7,0c0.8,0.1,1.4,0.7,1.4,1.5c0,1.4,0.1,4.3,0,7.8l0,0.2l-0.2,0C20.8,15.1,16.8,15.1,13.4,15.1z
							 M2.2,14.6c1.5,0,10.7,0.2,22.8,0C25,11.2,25,8.4,25,7c0-0.6-0.5-1.1-1.1-1.1c-2.8-0.2-10.5-0.7-20.6,0C2.6,6,2.2,6.5,2.1,7.1
							C2.1,8.4,2.1,11.2,2.2,14.6z"/>
					</g>
				</g>
			</g>
			<g>
				<g>
					<g>
						<g>
							<g>
								<path class="st0" d="M16.8,16c-1.2,0-2.5,0-3.9,0l0-0.4c7.3,0.1,12.2-0.1,12.3-0.2l0,0.4C25.1,15.8,21.9,16,16.8,16z"/>
							</g>
							<g>
								<path class="st0" d="M17.4,17c-1.2,0-2.5,0-3.9,0l0-0.4c6.7,0.1,10.8-0.1,11.5-0.1l0,0.4C24.5,16.9,21.8,17,17.4,17z"/>
							</g>
							<g>
								<path class="st0" d="M17.5,18c-1.2,0-2.5,0-3.9,0l0-0.4c6.6,0.1,10.6-0.1,11.3-0.1l0,0.4C24.4,17.9,21.9,18,17.5,18z"/>
							</g>
							<g>
								<path class="st0" d="M17.7,19c-1.2,0-2.5,0-3.9,0l0-0.4c6.4,0.1,10.1-0.1,11.1-0.1l0,0.4C24.2,18.9,21.8,19,17.7,19z"/>
							</g>
							<g>
								<path class="st0" d="M17.8,20c-1.1,0-2.4,0-3.8,0l0-0.4c6,0.1,9.5-0.1,10.8-0.1l0,0.4C23.9,19.9,21.5,20,17.8,20z"/>
							</g>
							<g>
								<path class="st0" d="M17.9,21c-1.2,0-2.4,0-3.9,0l0-0.4c5.7,0.1,9.2,0,10.8-0.1l0,0.4C23.6,20.9,21.3,21,17.9,21z"/>
							</g>
							<g>
								<path class="st0" d="M17.8,22c-1.2,0-2.4,0-3.8,0l0-0.4c5.6,0.1,9.1,0,10.7-0.1l0,0.4C23.5,21.9,21.2,22,17.8,22z"/>
							</g>
							<g>
								<path class="st0" d="M17.8,22.9c-1.1,0-2.4,0-3.8,0l0-0.4c5.5,0.1,9,0,10.6-0.1l0,0.4C23.4,22.8,21.2,22.9,17.8,22.9z"/>
							</g>
							<g>
								<path class="st0" d="M17.9,23.9c-1.2,0-2.4,0-3.9,0l0-0.4c5.1,0.1,8.5,0,10.5-0.1l0,0.4C23.1,23.8,20.9,23.9,17.9,23.9z"/>
							</g>
							<g>
								<path class="st0" d="M17.9,24.9c-1.2,0-2.4,0-3.9,0l0-0.4c5.1,0.1,8.4,0,10.4-0.1l0,0.4C23,24.8,20.8,24.9,17.9,24.9z"/>
							</g>
							<g>
								<path class="st0" d="M17.8,25.9c-1.2,0-2.4,0-3.8,0l0-0.4c4.9,0.1,8.3,0,10.2-0.1l0,0.4C22.8,25.8,20.7,25.9,17.8,25.9z"/>
							</g>
							<g>
								<path class="st0" d="M18.1,26.8c-1.1,0-2.4,0-3.8,0l0-0.4c5,0.1,8,0,9.8-0.1l0,0.4C22.8,26.8,21,26.8,18.1,26.8z"/>
							</g>
							<g>
								<path class="st0" d="M18,27.8c-1.2,0-2.5,0-3.8,0l0-0.4c3.8,0.1,7,0,9.8-0.1l0,0.4C22.2,27.8,20.2,27.8,18,27.8z"/>
							</g>
							<g>
								<path class="st0" d="M18.1,28.8c-1.1,0-2.3,0-3.8,0l0-0.4c4.8,0.1,7.7,0,9.5-0.1l0,0.4C22.6,28.8,20.8,28.8,18.1,28.8z"/>
							</g>
							<g>
								<path class="st0" d="M18.1,29.8c-1.1,0-2.3,0-3.8,0l0-0.4c4.7,0.1,7.4,0,9.3-0.1l0,0.4C22.3,29.8,20.6,29.8,18.1,29.8z"/>
							</g>
							<g>
								<path class="st0" d="M18.2,30.8c-1.1,0-2.3,0-3.7,0l0-0.4c4.4,0.1,7,0,8.9-0.1l0,0.4C22.1,30.8,20.5,30.8,18.2,30.8z"/>
							</g>
							<g>
								<path class="st0" d="M18.3,31.8c-1,0-2.2,0-3.7,0l0-0.4c4.4,0.1,6.7,0,8.5-0.1l0,0.4C22,31.8,20.5,31.8,18.3,31.8z"/>
							</g>
							<g>
								<path class="st0" d="M18.3,32.8c-1,0-2.2,0-3.6,0l0-0.4c4.2,0.1,6.5,0,8.3,0l0,0.4C21.8,32.7,20.4,32.8,18.3,32.8z"/>
							</g>
							<g>
								<path class="st0" d="M18.3,33.8c-1,0-2.2,0-3.6,0l0-0.4c4.1,0.1,6.2,0,8.1,0l0,0.4C21.5,33.7,20.2,33.8,18.3,33.8z"/>
							</g>
							<g>
								<path class="st0" d="M18.3,34.8c-1,0-2.2,0-3.6,0l0-0.4c4,0.1,6,0,7.9,0l0,0.4C21.4,34.7,20.1,34.8,18.3,34.8z"/>
							</g>
							<g>
								<path class="st0" d="M18.3,35.8c-1,0-2.2,0-3.6,0l0-0.4c3.9,0.1,6,0,7.7,0l0,0.4C21.3,35.7,20,35.8,18.3,35.8z"/>
							</g>
							<g>
								<path class="st0" d="M18.3,36.7c-1,0-2.2,0-3.6,0l0-0.4c3.8,0.1,5.8,0,7.5,0l0,0.4C21.1,36.6,19.9,36.7,18.3,36.7z"/>
							</g>
							<g>
								<path class="st0" d="M18.2,37.7c-1,0-2.2,0-3.6,0l0-0.4c3.7,0.1,5.5,0,7.3,0l0,0.4C20.9,37.6,19.8,37.7,18.2,37.7z"/>
							</g>
							<g>
								<path class="st0" d="M18.1,38.7c-1,0-2.2,0-3.6,0l0-0.4c3.3,0.1,5.4,0,7.4,0l0,0.4C20.7,38.6,19.5,38.7,18.1,38.7z"/>
							</g>
							<g>
								<path class="st0" d="M18.2,39.6c-1,0-2.1,0-3.6,0l0-0.4c3.6,0.1,5.4,0,7.1,0l0,0.4C20.8,39.6,19.7,39.6,18.2,39.6z"/>
							</g>
							<g>
								<path class="st0" d="M18.1,40.6c-1,0-2.2,0-3.6,0l0-0.4c3.2,0.1,5.2,0,7.2,0l0,0.4C20.6,40.6,19.4,40.6,18.1,40.6z"/>
							</g>
							<g>
								<path class="st0" d="M18.1,41.6c-1,0-2.2,0-3.6,0l0-0.4c3.2,0.1,5.2,0,7.1,0l0,0.4C20.5,41.6,19.4,41.6,18.1,41.6z"/>
							</g>
							<g>
								<path class="st0" d="M18.2,42.6c-1,0-2.1,0-3.6,0l0-0.4c3.5,0.1,5.3,0,7,0l0,0.4C20.7,42.6,19.6,42.6,18.2,42.6z"/>
							</g>
							<g>
								<path class="st0" d="M17.7,43.7c-0.9,0-1.9,0-3-0.1l0-0.4c2.5,0.2,4.1,0.1,5.6,0c0.5,0,0.9,0,1.3,0l0,0.4
									c-0.4,0-0.9,0-1.3,0C19.5,43.6,18.7,43.7,17.7,43.7z"/>
							</g>
							<g>
								<path class="st0" d="M16.8,44.8c-0.6,0-1.3,0-2.1,0l0-0.4c3.1,0.1,4.8,0,6.4-0.1l0.6,0l0,0.4l-0.6,0
									C19.9,44.7,18.6,44.8,16.8,44.8z"/>
							</g>
							<g>
								<path class="st0" d="M16.2,45.8c-0.5,0-1,0-1.6,0l0-0.4c2.6,0.1,4.4-0.1,6-0.2c0.3,0,0.7-0.1,1-0.1l0,0.4
									c-0.3,0-0.7,0.1-1,0.1C19.4,45.7,18,45.8,16.2,45.8z"/>
							</g>
							<g>
								<path class="st0" d="M16.3,46.9c-0.5,0-1.1,0-1.7,0l0-0.4c2.7,0.1,4.4-0.1,5.9-0.2c0.4,0,0.8-0.1,1.2-0.1l0,0.4
									c-0.4,0-0.8,0.1-1.1,0.1C19.4,46.7,18.1,46.9,16.3,46.9z"/>
							</g>
							<g>
								<path class="st0" d="M14.9,47.9c-0.2,0-0.4,0-0.6,0l0-0.4c2.4,0,4.2-0.2,5.6-0.4c0.6-0.1,1.2-0.2,1.8-0.2l0,0.4
									c-0.5,0-1.1,0.1-1.7,0.2C18.7,47.7,17,47.9,14.9,47.9z"/>
							</g>
							<g>
								<path class="st0" d="M14.8,48.9c-0.3,0-0.5,0-0.8,0l0-0.4c2.8,0,4.9-0.2,6.6-0.4c0.4,0,0.7-0.1,1.1-0.1l0,0.4
									c-0.3,0-0.7,0.1-1.1,0.1C19.1,48.7,17.2,48.9,14.8,48.9z"/>
							</g>
							<g>
								<path class="st0" d="M14.6,50.1c-0.2,0-0.4,0-0.7,0l0-0.4c3.1,0.1,5.5-0.3,7.3-0.5c0.2,0,0.5-0.1,0.7-0.1l0.1,0.4
									c-0.2,0-0.5,0.1-0.7,0.1C19.6,49.8,17.4,50.1,14.6,50.1z"/>
							</g>
							<g>
								<path class="st0" d="M14.6,51.1c-0.2,0-0.4,0-0.6,0l0-0.4c3.6,0.1,6.3-0.5,8.1-0.9l0.1,0.4C20.5,50.6,17.9,51.1,14.6,51.1z"
									/>
							</g>
							<g>
								<path class="st0" d="M14.5,52.2c-0.2,0-0.3,0-0.5,0l0-0.4c3,0.1,5.3-0.4,7.1-0.7c0.4-0.1,0.8-0.2,1.2-0.2l0.1,0.4
									c-0.4,0.1-0.8,0.1-1.2,0.2C19.5,51.8,17.2,52.2,14.5,52.2z"/>
							</g>
							<g>
								<path class="st0" d="M14.5,53c-0.2,0-0.4,0-0.6,0l0-0.4c3.3,0.1,6-0.4,7.8-0.7l0.6-0.1l0.1,0.4l-0.6,0.1
									C20,52.6,17.5,53,14.5,53z"/>
							</g>
							<g>
								<path class="st0" d="M14.7,53.9c-0.2,0-0.4,0-0.6,0l0-0.4c3.3,0.1,6-0.4,7.8-0.7l0.1,0l0.1,0.4l-0.1,0
									C20.3,53.5,17.8,53.9,14.7,53.9z"/>
							</g>
						</g>
						<g>
							<g>
								<path class="st0" d="M7.8,16c-3.6,0-5.7-0.2-5.7-0.2l0-0.4c0,0,2.2,0.1,5.7,0.2L7.8,16z"/>
							</g>
							<g>
								<path class="st0" d="M7.5,17c-3.5,0-5.4-0.2-5.4-0.2l0-0.4c0,0,1.9,0.1,5.4,0.2L7.5,17z"/>
							</g>
							<g>
								<path class="st0" d="M7.3,18c-3.4,0-5.2-0.2-5.2-0.2l0-0.4c0,0,1.8,0.1,5.2,0.2L7.3,18z"/>
							</g>
							<g>
								<path class="st0" d="M7.2,19c-2.8,0-4.5-0.1-4.9-0.2l0-0.4c0.4,0,2.1,0.1,4.9,0.2L7.2,19z"/>
							</g>
							<g>
								<path class="st0" d="M7.3,20c-2.4,0-4-0.1-4.9-0.2l0-0.4c0.9,0.1,2.5,0.1,4.9,0.2L7.3,20z"/>
							</g>
							<g>
								<path class="st0" d="M7.3,21c-2.3,0-3.9-0.1-4.8-0.2l0-0.4c0.9,0.1,2.5,0.1,4.8,0.2L7.3,21z"/>
							</g>
							<g>
								<path class="st0" d="M4.5,21.9c-0.9,0-1.5-0.1-1.9-0.1l0-0.4c0.4,0,1,0.1,1.9,0.1L4.5,21.9z"/>
							</g>
							<g>
								<path class="st0" d="M4.7,22.8c-1,0-1.6-0.1-2.1-0.1l0-0.4c0.4,0,1.1,0.1,2.1,0.1L4.7,22.8z"/>
							</g>
							<g>
								<path class="st0" d="M4.6,23.8c-0.8,0-1.4-0.1-1.9-0.1l0-0.4c0.4,0,1,0.1,1.9,0.1L4.6,23.8z"/>
							</g>
							<g>
								<path class="st0" d="M4.7,24.8c-0.8,0-1.4-0.1-1.9-0.1l0-0.4c0.4,0,1.1,0.1,1.9,0.1L4.7,24.8z"/>
							</g>
							<g>
								<path class="st0" d="M4.9,25.8c-0.8,0-1.4-0.1-1.9-0.1l0-0.4c0.5,0,1.1,0.1,1.9,0.1L4.9,25.8z"/>
							</g>
							<g>
								<path class="st0" d="M5.8,26.8c-1.2,0-2.1-0.1-2.7-0.1l0-0.4c0.6,0,1.5,0.1,2.7,0.1L5.8,26.8z"/>
							</g>
							<g>
								<path class="st0" d="M6.7,27.8c-1.2,0-2.4-0.1-3.5-0.1l0-0.4c1.1,0.1,2.2,0.1,3.5,0.1L6.7,27.8z"/>
							</g>
							<g>
								<path class="st0" d="M7.5,28.8c-1.8,0-3.1-0.1-4-0.1l0-0.4c0.9,0,2.2,0.1,4,0.1L7.5,28.8z"/>
							</g>
							<g>
								<path class="st0" d="M8,29.8c-2,0-3.5-0.1-4.4-0.1l0-0.4c0.9,0,2.4,0.1,4.4,0.1L8,29.8z"/>
							</g>
							<g>
								<path class="st0" d="M8.3,30.8c-2,0-3.4-0.1-4.5-0.1l0-0.4c1.1,0,2.5,0.1,4.5,0.1L8.3,30.8z"/>
							</g>
							<g>
								<path class="st0" d="M8.4,31.8c-1.9,0-3.2,0-4.4-0.1l0-0.4c1.2,0,2.5,0.1,4.4,0.1L8.4,31.8z"/>
							</g>
							<g>
								<path class="st0" d="M8.4,32.8c-1.8,0-3.1,0-4.2-0.1l0-0.4c1.1,0,2.4,0.1,4.2,0.1L8.4,32.8z"/>
							</g>
							<g>
								<path class="st0" d="M8.7,33.8c-1.7,0-3,0-4.2-0.1l0-0.4c1.1,0,2.4,0.1,4.2,0.1L8.7,33.8z"/>
							</g>
							<g>
								<path class="st0" d="M8.7,34.8c-1.7,0-2.9,0-4-0.1l0-0.4c1.1,0,2.3,0.1,4,0.1L8.7,34.8z"/>
							</g>
							<g>
								<path class="st0" d="M8.4,35.8c-1.4,0-2.6,0-3.6-0.1l0-0.4c1,0,2.1,0.1,3.6,0.1L8.4,35.8z"/>
							</g>
							<g>
								<path class="st0" d="M8,36.7c-1.1,0-2.1,0-2.9-0.1l0-0.4c0.8,0,1.7,0,2.9,0.1L8,36.7z"/>
							</g>
							<g>
								<path class="st0" d="M7.6,37.7c-0.8,0-1.6,0-2.3,0l0-0.4c0.7,0,1.5,0,2.3,0L7.6,37.7z"/>
							</g>
							<g>
								<path class="st0" d="M7.6,38.6c-0.8,0-1.6,0-2.3,0l0-0.4c0.7,0,1.4,0,2.3,0L7.6,38.6z"/>
							</g>
							<g>
								<path class="st0" d="M7.7,39.6c-0.8,0-1.5,0-2.2,0l0-0.4c0.7,0,1.4,0,2.2,0L7.7,39.6z"/>
							</g>
							<g>
								<path class="st0" d="M7.8,40.6c-0.8,0-1.6,0-2.3,0l0-0.4c0.7,0,1.4,0,2.3,0L7.8,40.6z"/>
							</g>
							<g>
								<path class="st0" d="M8.2,41.6c-0.9,0-1.8,0-2.6,0l0-0.4c0.8,0,1.6,0,2.6,0L8.2,41.6z"/>
							</g>
							<g>
								<path class="st0" d="M8.2,42.6c-0.9,0-1.7,0-2.6,0l0-0.4c0.8,0,1.6,0,2.6,0L8.2,42.6z"/>
							</g>
							<g>
								<path class="st0" d="M8.1,43.6c-0.9,0-1.7,0-2.5,0l0-0.4c0.8,0,1.6,0,2.5,0L8.1,43.6z"/>
							</g>
							<g>
								<path class="st0" d="M8.1,44.6c-0.5,0-0.9,0-1.3,0c-0.4,0-0.8,0-1.1,0l0-0.4c0.4,0,0.8,0,1.1,0c0.4,0,0.8,0,1.3,0L8.1,44.6z
									"/>
							</g>
							<g>
								<path class="st0" d="M8.1,45.6c-0.9,0-1.6-0.1-2.5-0.2l0-0.4c0.9,0.1,1.6,0.1,2.4,0.2L8.1,45.6z"/>
							</g>
							<g>
								<path class="st0" d="M10.2,46.7c-1.9,0-3.2-0.1-4.5-0.3l-0.2,0l0-0.4l0.2,0c1.8,0.2,3.6,0.3,6.9,0.2l0,0.4
									C11.7,46.7,10.9,46.7,10.2,46.7z"/>
							</g>
							<g>
								<path class="st0" d="M8.4,47.6c-0.6,0-1.1-0.1-1.5-0.1c-0.5,0-0.9-0.1-1.3-0.1l0-0.4c0.4,0,0.8,0.1,1.3,0.1
									c0.5,0,1,0.1,1.5,0.1L8.4,47.6z"/>
							</g>
							<g>
								<path class="st0" d="M7.1,48.8l-0.8-0.1c-0.4,0-0.7-0.1-1.1-0.1l0-0.4c0.3,0,0.7,0.1,1.1,0.1l0.8,0.1L7.1,48.8z"/>
							</g>
							<g>
								<path class="st0" d="M7.1,49.7c-0.5-0.1-0.9-0.1-1.3-0.2l-0.7-0.1L5.1,49l0.7,0.1c0.4,0.1,0.9,0.1,1.3,0.2L7.1,49.7z"/>
							</g>
							<g>
								<path class="st0" d="M6.8,50.6c-0.6-0.1-1.2-0.2-1.9-0.4L5,49.9c0.6,0.2,1.2,0.3,1.8,0.4L6.8,50.6z"/>
							</g>
							<g>
								<path class="st0" d="M7.4,51.7c-0.5-0.1-0.9-0.2-1.3-0.2c-0.4-0.1-0.8-0.2-1.2-0.2L5,50.8c0.4,0.1,0.8,0.1,1.2,0.2
									c0.4,0.1,0.8,0.2,1.3,0.2L7.4,51.7z"/>
							</g>
							<g>
								<path class="st0" d="M7.6,52.6c-0.8-0.1-1.6-0.2-2.2-0.3l-0.6-0.1l0.1-0.4l0.6,0.1c0.6,0.1,1.4,0.2,2.2,0.3L7.6,52.6z"/>
							</g>
						</g>
					</g>
					<g>
						<g>
							<path class="st0" d="M25.1,7C25,7,12.2,6.2,4.3,7l0-0.4c8-0.8,20.8,0,20.9,0L25.1,7z"/>
						</g>
						<g>
							<path class="st0" d="M25.1,7.9c-0.1,0-6.9-0.4-13.7-0.4l0-0.4c6.8-0.1,13.6,0.4,13.7,0.4L25.1,7.9z"/>
						</g>
						<g>
							<path class="st0" d="M25.1,9c0,0-1.8-0.1-4.4-0.2l0-0.4c2.6,0.1,4.3,0.2,4.4,0.2L25.1,9z"/>
						</g>
						<g>
							<path class="st0" d="M25.1,10.1c0,0-1-0.1-2.6-0.1l0-0.4c1.6,0.1,2.6,0.1,2.6,0.1L25.1,10.1z"/>
						</g>
						<g>
							<path class="st0" d="M25.1,11c0,0-1-0.1-2.6-0.1l0-0.4c1.6,0.1,2.6,0.1,2.6,0.1L25.1,11z"/>
						</g>
					</g>
				</g>
				<g>
					<g>
						<g>
							<g>
								<path class="st0" d="M13.1,47c-2,0-4-0.1-5.8-0.4c-0.7-0.1-1.2-0.7-1.2-1.4c0.2-4.5-0.2-9-1.3-13.4
									c-1.5-5.8-2-12.5-2.1-17.1l0-0.2l0.2,0c2.9,0.1,11.2,0.1,21.2,0l0.2,0l0,0.2c-0.2,4.6-0.7,11.3-2.1,17.1
									c-1.1,4.4-1.6,8.8-1.3,13.3c0,0.7-0.5,1.3-1.2,1.4C17.5,46.9,15.3,47,13.1,47z M3.2,15c0.2,4.6,0.7,11.1,2.1,16.8
									c1.1,4.4,1.6,9,1.4,13.5c0,0.5,0.3,0.9,0.8,1c3.7,0.6,8,0.5,12.2-0.1c0.5-0.1,0.8-0.5,0.8-1c-0.2-4.5,0.2-9,1.4-13.4
									c1.4-5.7,1.9-12.2,2.1-16.8C14.3,15.1,6.2,15.1,3.2,15z"/>
							</g>
							<g>
								<g>
									<path class="st0" d="M11.9,45.8c-0.6,0-2-0.1-3.1-0.6c-1.6-0.8-1.1-3.4-1.1-3.6l0.4,0.1c0,0-0.4,2.5,0.9,3.1
										c1.4,0.7,3.3,0.6,3.3,0.6l0,0.4C12.2,45.8,12.1,45.8,11.9,45.8z"/>
								</g>
								<g>
									<path class="st0" d="M6.8,22.1c-0.5,0-1-0.2-1.3-0.4C4.2,20.7,4,12,4.2,9.8c0.2-2.5,2.5-2.3,2.5-2.3l0,0.4
										c-0.1,0-1.9-0.1-2.1,1.9c-0.2,2.7,0.2,10.7,1.2,11.4c0.5,0.3,1.2,0.5,1.9,0.1c0.8-0.4,1.3-1.6,1.2-3.3
										c-0.1-3.9-0.4-6.2-0.4-6.2l0.4-0.1c0,0,0.3,2.4,0.5,6.3c0.1,2.4-0.7,3.3-1.4,3.7C7.5,22,7.2,22.1,6.8,22.1z"/>
								</g>
							</g>
						</g>
						<g>
							<g>
								<path class="st0" d="M2.8,14.9c0-1.2-0.2-7.3,0.5-8c0.1-0.1,0.2-0.1,0.3-0.1v0.4C3.2,7.4,3,11.4,3.2,14.9L2.8,14.9z"/>
							</g>
							<g>
								<path class="st0" d="M24.3,14.4l-0.4,0c0,0,0.1-1.5,0-2.9l0.4,0C24.5,12.8,24.3,14.3,24.3,14.4z"/>
							</g>
						</g>
					</g>
				</g>
			</g>
		</g>
		<g>
			<g>
				<path class="st0" d="M20,8.6c-3.7,0-5.3-1.3-5.9-1.8c-0.4,0.5-1.6,1.6-3.9,0.9C9.8,7.9,7.3,9.1,5,8.4C3.9,8,3,7.3,2.5,6.1
					C1.2,5.6,1.7,3.6,1.7,3.5c1.1-3.6,8.9-2.5,9.7-2.4c4.8-1.9,7.5,0.8,7.9,1.3c2.6,0,4.2,1.3,5.1,2.3c0.6,0.7,0.6,1.9-0.1,2.5
					C23.7,7.9,22.4,8.6,20,8.6z M14.1,6.1l0.2,0.3c0,0,1.5,1.9,5.7,1.9c2.2,0,3.4-0.6,4-1.2c0.5-0.5,0.6-1.4,0.1-1.9
					c-0.8-1-2.4-2.2-4.9-2.2h-0.1L19,2.8c-0.1-0.1-2.6-3.3-7.5-1.3l-0.1,0l-0.1,0c-0.1,0-8.3-1.3-9.3,2.1c0,0-0.4,1.8,0.6,2.1l0.1,0
					l0,0.1C3.3,6.9,4.1,7.7,5.1,8c2.3,0.7,4.9-0.7,5-0.7l0.1,0l0.1,0C13,8.1,13.9,6.4,14,6.4L14.1,6.1z"/>
			</g>
			<g>
				<g>
					<path class="st0" d="M2.9,4.7c0-0.2,0-0.4,0.1-0.6C3.3,3,5.1,2.4,7.9,2.4c0,0,0,0,0,0c1.7,0,3.1,0.2,3.3,0.3L11.2,3l0,0
						C11,3,9.6,2.8,7.9,2.8h0c-2.5,0-4.3,0.5-4.6,1.4c0,0.1,0,0.3,0,0.5L2.9,4.7z M20.9,4.6c-0.4-0.1-0.9-0.2-1.5-0.2
						c-0.5,0-0.9-0.2-1.2-0.6c0-0.1-1.1-1.4-3.3-1.4c-0.8,0-1.7,0.2-2.7,0.6L12,2.6C13,2.2,13.9,2,14.8,2c2.4,0,3.6,1.5,3.6,1.6
						C18.7,3.8,19,4,19.4,4C20,4,20.5,4,21,4.2L20.9,4.6z"/>
				</g>
				<g>
					<path class="st0" d="M22.9,5.7L22.7,5c-0.4-0.7-1.4-1.5-3.5-1.5c-0.3,0-0.5-0.1-0.7-0.3c-0.1-0.1-1.3-1.7-3.9-1.7V1.1
						c2.7,0,4.1,1.8,4.2,1.8c0.1,0.1,0.2,0.2,0.4,0.2c2.3,0,3.3,0.9,3.8,1.7l0,0.1l0.2,0.7L22.9,5.7z M2.7,3.8L2.3,3.7
						c0.6-1.9,3.7-2.1,5.6-2.1c1.8,0,3.4,0.3,3.4,0.3l-0.1,0.4c0,0-1.6-0.3-3.4-0.3C6.2,2,3.2,2.2,2.7,3.8z"/>
				</g>
			</g>
		</g>
	</g>
	<g>
		<g>
			<g>
				<g>
					<path class="st0" d="M16,3.7c-0.2,0-0.3-0.1-0.3-0.3c0-0.2,0.1-0.3,0.3-0.3c0.2,0,0.3,0.1,0.3,0.3C16.3,3.6,16.2,3.7,16,3.7z
						 M16,3.3c-0.1,0-0.1,0.1-0.1,0.1S16,3.6,16,3.6c0.1,0,0.1-0.1,0.1-0.1S16.1,3.3,16,3.3z"/>
				</g>
				<g>
					<g>
						<path class="st0" d="M5.5,4.9c-0.2,0-0.3-0.1-0.3-0.3s0.1-0.3,0.3-0.3c0.2,0,0.3,0.1,0.3,0.3S5.7,4.9,5.5,4.9z M5.5,4.5
							c-0.1,0-0.1,0.1-0.1,0.1c0,0.1,0.1,0.1,0.1,0.1c0.1,0,0.1-0.1,0.1-0.1C5.7,4.5,5.6,4.5,5.5,4.5z"/>
					</g>
					<g>
						<path class="st0" d="M6.1,4.2c-0.2,0-0.3-0.1-0.3-0.3s0.1-0.3,0.3-0.3c0.2,0,0.3,0.1,0.3,0.3S6.2,4.2,6.1,4.2z M6.1,3.8
							C6,3.8,5.9,3.8,5.9,3.9S6,4,6.1,4C6.1,4,6.2,4,6.2,3.9S6.1,3.8,6.1,3.8z"/>
					</g>
					<g>
						<path class="st0" d="M5.4,4.4c-0.2,0-0.3-0.1-0.3-0.3s0.1-0.3,0.3-0.3c0.2,0,0.3,0.1,0.3,0.3S5.6,4.4,5.4,4.4z M5.4,3.9
							C5.4,3.9,5.3,4,5.3,4.1c0,0.1,0.1,0.1,0.1,0.1c0.1,0,0.1-0.1,0.1-0.1C5.6,4,5.5,3.9,5.4,3.9z"/>
					</g>
				</g>
			</g>
			<g>
				<g>
					<g>
						<path class="st0" d="M19.4,13.8c-0.2,0-0.3-0.1-0.3-0.3s0.1-0.3,0.3-0.3c0.2,0,0.3,0.1,0.3,0.3S19.6,13.8,19.4,13.8z
							 M19.4,13.4c-0.1,0-0.1,0.1-0.1,0.1c0,0.1,0.1,0.1,0.1,0.1c0.1,0,0.1-0.1,0.1-0.1C19.5,13.5,19.5,13.4,19.4,13.4z"/>
					</g>
				</g>
			</g>
		</g>
		<g>
			<g>
				<g>
					<path class="st0" d="M10.9,23.4c-0.4,0-0.7-0.3-0.7-0.7c0-0.4,0.3-0.7,0.7-0.7c0.4,0,0.7,0.3,0.7,0.7
						C11.6,23.1,11.3,23.4,10.9,23.4z M10.9,22.4c-0.2,0-0.3,0.1-0.3,0.3s0.1,0.3,0.3,0.3s0.3-0.1,0.3-0.3S11.1,22.4,10.9,22.4z"/>
				</g>
				<g>
					<path class="st0" d="M9.1,25.2c-0.3,0-0.6-0.3-0.6-0.6c0-0.3,0.3-0.6,0.6-0.6c0.3,0,0.6,0.3,0.6,0.6C9.6,25,9.4,25.2,9.1,25.2z
						 M9.1,24.5c-0.1,0-0.2,0.1-0.2,0.2s0.1,0.2,0.2,0.2c0.1,0,0.2-0.1,0.2-0.2S9.2,24.5,9.1,24.5z"/>
				</g>
				<g>
					<path class="st0" d="M11.2,21.7c-0.3,0-0.5-0.2-0.5-0.5s0.2-0.5,0.5-0.5c0.3,0,0.5,0.2,0.5,0.5S11.5,21.7,11.2,21.7z
						 M11.2,21.1c-0.1,0-0.1,0-0.1,0.1c0,0.1,0.2,0.1,0.2,0C11.3,21.1,11.3,21.1,11.2,21.1z"/>
				</g>
				<g>
					<path class="st0" d="M11,28.5c-0.3,0-0.6-0.3-0.6-0.6c0-0.3,0.3-0.6,0.6-0.6c0.3,0,0.6,0.3,0.6,0.6
						C11.5,28.2,11.3,28.5,11,28.5z M11,27.8c-0.1,0-0.2,0.1-0.2,0.2c0,0.1,0.1,0.2,0.2,0.2c0.1,0,0.2-0.1,0.2-0.2
						C11.1,27.8,11.1,27.8,11,27.8z"/>
				</g>
				<g>
					<path class="st0" d="M9.7,38.7c-0.3,0-0.6-0.3-0.6-0.6c0-0.3,0.3-0.6,0.6-0.6s0.6,0.3,0.6,0.6C10.2,38.4,10,38.7,9.7,38.7z
						 M9.7,37.9c-0.1,0-0.2,0.1-0.2,0.2c0,0.1,0.1,0.2,0.2,0.2s0.2-0.1,0.2-0.2C9.8,38,9.8,37.9,9.7,37.9z"/>
				</g>
			</g>
			<g>
				<g>
					<path class="st0" d="M12.3,16.9c-0.2,0-0.3-0.1-0.3-0.3c0-0.2,0.1-0.3,0.3-0.3c0.2,0,0.3,0.1,0.3,0.3
						C12.6,16.8,12.4,16.9,12.3,16.9z M12.3,16.5C12.2,16.5,12.2,16.5,12.3,16.5C12.2,16.7,12.3,16.7,12.3,16.5
						C12.3,16.5,12.3,16.5,12.3,16.5z"/>
				</g>
				<g>
					<path class="st0" d="M13.8,33.4c-0.1,0-0.3-0.1-0.3-0.3c0-0.1,0.1-0.3,0.3-0.3c0.1,0,0.3,0.1,0.3,0.3
						C14.1,33.3,14,33.4,13.8,33.4z M13.8,33c-0.1,0-0.2,0.1-0.2,0.2c0,0.1,0.1,0.2,0.2,0.2c0.1,0,0.2-0.1,0.2-0.2
						C14,33.1,13.9,33,13.8,33z"/>
				</g>
				<g>
					<path class="st0" d="M12.4,34.6c-0.1,0-0.3-0.1-0.3-0.3c0-0.1,0.1-0.3,0.3-0.3c0.1,0,0.3,0.1,0.3,0.3
						C12.6,34.5,12.5,34.6,12.4,34.6z M12.4,34.2c-0.1,0-0.2,0.1-0.2,0.2c0,0.1,0.1,0.2,0.2,0.2s0.2-0.1,0.2-0.2
						C12.5,34.2,12.5,34.2,12.4,34.2z"/>
				</g>
				<g>
					<path class="st0" d="M13.5,22.9c-0.1,0-0.3-0.1-0.3-0.3c0-0.1,0.1-0.3,0.3-0.3c0.1,0,0.3,0.1,0.3,0.3
						C13.8,22.7,13.7,22.9,13.5,22.9z M13.5,22.5c-0.1,0-0.2,0.1-0.2,0.2c0,0.1,0.1,0.2,0.2,0.2s0.2-0.1,0.2-0.2
						C13.7,22.5,13.6,22.5,13.5,22.5z"/>
				</g>
				<g>
					<path class="st0" d="M11.1,27c-0.2,0-0.3-0.1-0.3-0.3c0-0.2,0.1-0.3,0.3-0.3c0.2,0,0.3,0.1,0.3,0.3C11.4,26.8,11.2,27,11.1,27z
						 M11.1,26.6C11,26.6,11,26.6,11.1,26.6C11,26.8,11.2,26.8,11.1,26.6C11.2,26.6,11.1,26.6,11.1,26.6z"/>
				</g>
			</g>
		</g>
	</g>
</g>
</svg>
