<?xml version="1.0" encoding="utf-8"?>
<!-- Generator: Adobe Illustrator 21.0.0, SVG Export Plug-In . SVG Version: 6.00 Build 0)  -->
<svg version="1.1" id="Layer_1" xmlns="http://www.w3.org/2000/svg" xmlns:xlink="http://www.w3.org/1999/xlink" x="0px" y="0px"
	 viewBox="0 0 240 95" style="enable-background:new 0 0 240 95;" xml:space="preserve">
<style type="text/css">
	.st0{fill:#FFFFFF;}
</style>
<g>
	<g>
		<path class="st0" d="M109.7,41.8c-0.4,0-0.8,0-1.3-0.1c-5.6-0.7-8.1-6-10-10.3c-0.6-1.4-1.3-2.7-1.9-3.7c-2.3-3.7-6.3-8.3-11.9-9
			c-5.5-0.6-11.1,1.9-15.5,4.1L63,26.1c-7.4,3.9-15.1,7.9-22.7,11.8c-1,0.5-2.2,0.1-2.7-0.9c-0.5-1-0.1-2.2,0.9-2.7
			c7.6-3.9,15.2-7.9,22.7-11.8l6.2-3.2c4.8-2.5,11.2-5.3,17.8-4.6c5.6,0.6,10.7,4.4,14.8,10.8c0.8,1.2,1.4,2.7,2.1,4.2
			c1.7,3.7,3.5,7.6,7,8c2.5,0.3,3.5-1,5.3-3.7c0.5-0.8,1.1-1.6,1.7-2.4c8.4-10.2,16.5-17.9,24.9-23.5c7-4.7,13.1-6.9,19.7-7.2
			c11.1-0.4,20.8,4.7,28.1,9.2c0.9,0.6,1.2,1.8,0.6,2.7c-0.6,0.9-1.8,1.2-2.7,0.6c-6.8-4.2-15.9-9-25.8-8.6
			c-5.8,0.2-11.3,2.2-17.7,6.5c-8,5.4-15.9,12.8-24,22.8c-0.5,0.6-1,1.4-1.5,2.1C116,38.8,113.9,41.8,109.7,41.8z"/>
	</g>
	<g>
		<path class="st0" d="M188.5,32.4c-1.1,0-2-0.9-2-1.9c-0.3-13.8,8.3-25.7,20.6-28.4c1.1-0.2,2.1,0.4,2.4,1.5
			c0.2,1.1-0.4,2.1-1.5,2.4c-11.8,2.6-17.8,14.2-17.5,24.4C190.5,31.5,189.7,32.4,188.5,32.4C188.5,32.4,188.5,32.4,188.5,32.4z"/>
	</g>
	<g>
		<g>
			<path class="st0" d="M215.3,52.9c-12.6,0-22.8-10.2-22.8-22.8s10.2-22.8,22.8-22.8s22.8,10.2,22.8,22.8S227.9,52.9,215.3,52.9z
				 M215.3,8.2c-12.1,0-21.9,9.8-21.9,21.9s9.8,21.9,21.9,21.9s21.9-9.8,21.9-21.9S227.4,8.2,215.3,8.2z"/>
		</g>
		<g>
			<polygon class="st0" points="205.2,10.1 206.1,10.4 205.7,16.1 200.4,20.3 196.2,18.5 197.9,16 199.4,14.3 201.1,12.8 
				203.1,11.3 			"/>
		</g>
		<g>
			<polygon class="st0" points="217.2,7.8 220.8,11.8 225.8,10.3 223.6,9.3 221.5,8.6 219.7,8.1 218.1,7.9 			"/>
		</g>
		<g>
			<polygon class="st0" points="219.2,17.8 211.6,20 211.6,28 218.8,31 223.6,25.1 			"/>
		</g>
		<g>
			<polygon class="st0" points="200,31 197.2,36.5 203,44 206.1,41.3 205.5,34.3 			"/>
		</g>
		<g>
			<polygon class="st0" points="215.3,45.3 220.7,39.3 227,41.9 224.8,47 218.4,48.7 			"/>
		</g>
		<g>
			<polygon class="st0" points="233.3,20.9 236.6,26.2 236.3,34.3 232.6,34.3 230.8,27.4 			"/>
		</g>
		<g>
			<path class="st0" d="M219.2,19.9l-0.9-0.2c0.4-2.3,2.2-9.2,2.3-9.5l0.9,0.2C221.4,10.5,219.6,17.6,219.2,19.9z"/>
		</g>
		<g>
			<path class="st0" d="M212.3,21.3c-0.1,0-5.3-4-8-5.7l0.5-0.8c2.7,1.7,8,5.7,8.1,5.7L212.3,21.3z"/>
		</g>
		<g>
			<path class="st0" d="M199.8,32.1c-0.8-2.5,0-11.9,0-12.3l0.9,0.1c0,0.1-0.7,9.7,0,12L199.8,32.1z"/>
		</g>
		<g>
			<path class="st0" d="M205.1,35.4l-0.4-0.8c0.8-0.4,4.8-4.6,7.2-7.2l0.7,0.6C211.9,28.6,206.3,34.8,205.1,35.4z"/>
		</g>
		<g>
			<path class="st0" d="M216.1,45.8c-2-0.5-10.6-4.4-10.9-4.5l0.4-0.9c0.1,0,8.9,4,10.8,4.5L216.1,45.8z"/>
		</g>
		<g>
			<path class="st0" d="M197.6,36.9c-0.5,0-2.7,0-4.1-0.6l0.3-0.9c1.3,0.5,3.8,0.5,3.8,0.5L197.6,36.9
				C197.7,36.9,197.7,36.9,197.6,36.9z"/>
		</g>
		<g>
			<path class="st0" d="M203.6,49.6c-1.6-1.5-1-6.1-0.9-6.6l0.9,0.1c-0.3,1.8-0.3,5,0.6,5.8L203.6,49.6z"/>
		</g>
		<g>
			<path class="st0" d="M215.7,52.9l-0.2-0.9c0.6-0.1,1.9-2.1,2.7-3.9l0.9,0.4C218.7,49.4,217.1,52.6,215.7,52.9z"/>
		</g>
		<g>
			<path class="st0" d="M226.8,49.3c-0.3-0.5-1.7-1.5-2.5-2l0.5-0.8c0.2,0.2,2.3,1.5,2.8,2.3L226.8,49.3z"/>
		</g>
		<g>
			<path class="st0" d="M226.6,42.5l-0.7-0.6c2.8-3.1,7-8.3,7.3-9.7l0.9,0.2C233.8,34.5,227.4,41.7,226.6,42.5z"/>
		</g>
		<g>
			<path class="st0" d="M220.5,40.9c-0.3-4.9-2.6-11-2.7-11l0.9-0.3c0.1,0.3,2.4,6.3,2.7,11.3L220.5,40.9z"/>
		</g>
		<g>
			<path class="st0" d="M231.9,28c-1.4-1.1-7.4-2.1-9.6-2.4l0.1-0.9c0.3,0,8.1,1.1,10.1,2.6L231.9,28z"/>
		</g>
		<g>
			<path class="st0" d="M237.3,36.1l-0.9-0.3c0.1-0.5-0.6-1.5-1.1-2l0.7-0.6C236.3,33.4,237.7,35,237.3,36.1z"/>
		</g>
		<g>
			<path class="st0" d="M236.3,26.7l-0.1-0.9c0.9-0.1,1.5-0.1,1.6,0.4l-0.9,0.2c0,0.2,0.2,0.3,0.3,0.3
				C237.1,26.6,236.7,26.7,236.3,26.7z"/>
		</g>
		<g>
			<path class="st0" d="M232.8,21.6c-0.2-2.5-0.6-5.5-1-5.9l0.7-0.6c0.9,0.9,1.2,5.6,1.3,6.5L232.8,21.6z"/>
		</g>
		<g>
			<path class="st0" d="M193,29.8c0,0,1.7,17.1,17,20.5c0,0,13.7,3.7,22.8-6.2c0,0-8.3,11.5-23.2,7.6C209.5,51.6,193.6,48,193,29.8z
				"/>
		</g>
	</g>
	<g>
		<path class="st0" d="M6.7,63.9H1.9V42.6h4.9v8.5h6.9v-8.5h4.9v21.3h-4.9v-8.5H6.7V63.9z"/>
		<path class="st0" d="M28.6,50.3c4.4,0,7.9,2.9,7.9,7c0,4.1-3.3,7-7.9,7c-4.8,0-8-2.9-8-7C20.6,53.2,24.1,50.3,28.6,50.3z
			 M28.5,60.4c1.8,0,3.1-1.3,3.1-3.1c0-1.8-1.4-3.1-3.1-3.1c-1.7,0-3.1,1.3-3.1,3.1C25.4,59.1,26.7,60.4,28.5,60.4z"/>
		<path class="st0" d="M38.6,50.7h4.6v1.4h0.1c1-1,2.4-1.8,3.8-1.8c1.8,0,3.7,0.6,4.6,2.4c1.4-1.7,2.9-2.4,4.4-2.4
			c2.4,0,5.2,1.2,5.2,4.9v8.7h-4.6v-7.5c0-1.3-0.7-2.5-2.3-2.5c-1.4,0-2.1,1.1-2.1,2.1v7.9h-4.6v-7.5c0-1.3-0.7-2.5-2.3-2.5
			c-1.5,0-2.1,1.2-2.1,2.2v7.7h-4.6V50.7z"/>
		<path class="st0" d="M67.8,57.9c0,2,1.7,2.7,2.9,2.7c1.5,0,2.1-0.3,3.2-1.5l3.3,1.7c-1.5,2.5-3.9,3.5-6.9,3.5c-4,0-7.3-3.2-7.3-7
			c0-3.9,3.3-7,7.3-7c4,0,7.1,2.4,7.1,7c0,0.2,0,0.5,0,0.6H67.8z M72.9,55.4c-0.2-1.4-1.2-2.1-2.5-2.1c-1.6,0-2.5,0.9-2.5,2.1H72.9z
			"/>
		<path class="st0" d="M91,52.5c-1.2-1.5-2.1-3-2.1-4.7c0-3.3,2.4-5.6,6.8-5.6c4.3,0,6.3,2.9,6.3,5.6c0,3.2-4.2,5.2-4.2,5.2l2.8,2.9
			c0,0,0.9-0.4,3.1-2.7l3,2.9c0,0-1.4,1.7-3,2.9l4.6,4.8h-6.1l-2.1-2.2c-1.9,1.3-3.6,2.6-6.8,2.6c-3.2,0-7.4-1.3-7.4-6
			C85.8,55.6,88.5,53.8,91,52.5z M93.5,55.2c0,0-2.2,0.8-2.2,2.8c0,1.2,1.3,1.8,2.4,1.8c1.8,0,3.2-1.2,3.2-1.2L93.5,55.2z
			 M93.8,47.8c0,1.2,1.5,2.6,1.5,2.6c1.1-0.6,2.4-1.5,2.4-2.6s-0.5-2.1-2.1-2.1C94.3,45.7,93.8,46.6,93.8,47.8z"/>
		<path class="st0" d="M134.6,63.9h-5.2l-1.6-4.3h-8.1l-1.6,4.3h-5.2l8.6-21.3h4.5L134.6,63.9z M123.8,49.2L123.8,49.2l-2.4,6.2h4.8
			L123.8,49.2z"/>
		<path class="st0" d="M140.3,63.9l-7.1-13.2h5.3l3.2,7.2l3.2-7.2h3.2l3.2,7.2l3.2-7.2h5.3l-7.1,13.2h-3.1l-3-6.8l-3,6.8H140.3z"/>
		<path class="st0" d="M166.2,50.3c1.8,0,3.3,0.6,4.3,1.7v-1.3h4.6v13.2h-4.5v-1.5h-0.1c-1,1.1-2.5,1.9-4.3,1.9
			c-3.9,0-6.6-3.1-6.6-7C159.6,53.4,162.3,50.3,166.2,50.3z M167.5,60.4c1.8,0,3.1-1.3,3.1-3.1c0-1.8-1.4-3.1-3.1-3.1
			c-1.7,0-3.1,1.3-3.1,3.1C164.4,59.1,165.7,60.4,167.5,60.4z"/>
		<path class="st0" d="M193.4,50.7l-10.4,20h-5.3l4.6-8.8L176,50.7h5.3l3.7,6.8l3.2-6.8H193.4z"/>
	</g>
	<g>
		<path class="st0" d="M73.5,72.2c4.2,0,7.4,2.2,7.4,6.6c0,4.4-3.2,6.9-7.4,6.9h-2.9v8h-4.9V72.2H73.5z M71.9,81.8
			c1.9,0,3.8-0.7,3.8-2.8c0-2.2-1.8-2.9-3.8-2.9h-1.4v5.7H71.9z"/>
		<path class="st0" d="M87.3,86.7c0,2.6,0.7,3.7,2.6,3.7s2.6-1,2.6-3.7v-6.4h4.6v7.5c0,4.5-2.2,6.3-7.3,6.3s-7.3-1.8-7.3-6.3v-7.5
			h4.6V86.7z"/>
		<path class="st0" d="M100.1,80.3h4.6v1.4h0.1c1-1,2.4-1.8,3.8-1.8c2.5,0,5.9,1.2,5.9,5v8.8h-4.6v-7.6c0-1.3-0.9-2.6-2.4-2.6
			c-1.4,0-2.7,1.3-2.7,2.6v7.6h-4.6V80.3z"/>
		<path class="st0" d="M123,79.9c1.8,0,3.3,0.6,4.4,1.7V71.2h4.6v22.4h-4.6v-1.5h-0.1c-1,1.1-2.6,1.9-4.4,1.9
			c-3.9,0-6.7-3.2-6.7-7.1C116.4,83.1,119.1,79.9,123,79.9z M124.4,90.1c1.8,0,3.1-1.3,3.1-3.1c0-1.9-1.4-3.2-3.1-3.2
			c-1.7,0-3.1,1.3-3.1,3.2C121.3,88.8,122.5,90.1,124.4,90.1z"/>
		<path class="st0" d="M140.3,74.8c0,1.5-1.2,2.7-2.7,2.7c-1.5,0-2.7-1.2-2.7-2.7c0-1.5,1.2-2.7,2.7-2.7
			C139,72,140.3,73.2,140.3,74.8z M135.2,93.7h4.6V80.3h-4.6V93.7z"/>
		<path class="st0" d="M143.8,75.3h4.6v5h2.8v3.5h-2.8v4.3c0,1.3,0.3,1.9,1,1.9c0.6,0,1.1-0.4,1.1-0.4l1.1,3.7c0,0-1.5,0.8-3.4,0.8
			c-3.7,0-4.6-2.7-4.6-5.1v-5.1h-1.9v-3.5h1.9V75.3z"/>
	</g>
</g>
</svg>
