<?xml version="1.0" encoding="utf-8"?>
<!-- Generator: Adobe Illustrator 21.0.0, SVG Export Plug-In . SVG Version: 6.00 Build 0)  -->
<svg version="1.1" id="Layer_1" xmlns="http://www.w3.org/2000/svg" xmlns:xlink="http://www.w3.org/1999/xlink" x="0px" y="0px"
	 viewBox="0 0 18 18" style="enable-background:new 0 0 18 18;" xml:space="preserve">
<style type="text/css">
	.st0{fill:#FFFFFF;}
</style>
<path class="st0" d="M9,0.5C4.3,0.5,0.5,4.3,0.5,9s3.8,8.5,8.5,8.5s8.5-3.8,8.5-8.5S13.7,0.5,9,0.5z M9,16.7c-4.3,0-7.7-3.5-7.7-7.7
	S4.7,1.3,9,1.3s7.7,3.5,7.7,7.7S13.3,16.7,9,16.7z M9.4,7.6V3c0-0.2-0.2-0.4-0.4-0.4S8.6,2.8,8.6,3v4.6C8.1,7.7,7.7,8.1,7.6,8.6H4.3
	C4.1,8.6,3.9,8.8,3.9,9s0.2,0.4,0.4,0.4h3.3C7.7,10,8.3,10.5,9,10.5c0.8,0,1.5-0.7,1.5-1.5C10.5,8.3,10,7.7,9.4,7.6z M9,9.7
	C8.6,9.7,8.3,9.4,8.3,9S8.6,8.3,9,8.3S9.7,8.6,9.7,9S9.4,9.7,9,9.7z"/>
</svg>
